<svg width="24" height="24" viewBox="0 0 24 24" fill="none" xmlns="http://www.w3.org/2000/svg">
<path d="M15 5.81445C15.391 5.81445 15.7047 5.98011 15.9766 6.1875C16.2345 6.38432 16.5176 6.669 16.8389 6.99023L17.0098 7.16113C17.331 7.48237 17.6157 7.76554 17.8125 8.02344C18.0199 8.29525 18.1855 8.60896 18.1855 9C18.1855 9.39104 18.0199 9.70475 17.8125 9.97656C17.6157 10.2345 17.331 10.5176 17.0098 10.8389L9.81641 18.0322C9.64435 18.2043 9.48277 18.3729 9.27734 18.4893C9.07186 18.6056 8.84448 18.6578 8.6084 18.7168L5.9541 19.3799C5.79316 19.4201 5.60594 19.4689 5.44824 19.4844C5.28312 19.5005 4.98347 19.4991 4.74219 19.2578C4.5009 19.0165 4.49947 18.7169 4.51562 18.5518C4.53105 18.3941 4.57988 18.2068 4.62012 18.0459L5.2832 15.3916C5.34222 15.1555 5.3944 14.9281 5.51074 14.7227C5.62711 14.5172 5.79572 14.3557 5.96777 14.1836L13.1611 6.99023C13.4824 6.669 13.7655 6.38432 14.0234 6.1875C14.2953 5.98011 14.609 5.81445 15 5.81445Z" stroke="#33363F" stroke-width="1.2"/>
<path d="M12.5 7.5L16.5 11.5" stroke="#7E869E" stroke-opacity="0.25"/>
</svg>
